<svg xmlns="http://www.w3.org/2000/svg" viewBox="0 0 172 232" width="172" height="232"><line x1="85.7" y1="143.0" x2="85.7" y2="81.0" stroke="#0B0D38" stroke-width="10"/><line x1="85.7" y1="143.0" x2="85.7" y2="205.0" stroke="#0B0D38" stroke-width="10"/><line x1="85.7" y1="143.0" x2="23.700000000000003" y2="143.0" stroke="#0B0D38" stroke-width="10"/><line x1="85.7" y1="143.0" x2="147.7" y2="143.0" stroke="#0B0D38" stroke-width="10"/><line x1="85.7" y1="143.0" x2="37.7" y2="95.0" stroke="#0B0D38" stroke-width="10"/><line x1="85.7" y1="143.0" x2="133.7" y2="95.0" stroke="#0B0D38" stroke-width="10"/><line x1="85.7" y1="143.0" x2="37.7" y2="191.0" stroke="#0B0D38" stroke-width="10"/><line x1="85.7" y1="143.0" x2="133.7" y2="191.0" stroke="#0B0D38" stroke-width="10"/><rect x="70.7" y="66.0" width="30" height="30" rx="8.5" fill="#0B0D38"/><rect x="70.7" y="190.0" width="30" height="30" rx="8.5" fill="#0B0D38"/><rect x="8.700000000000003" y="128.0" width="30" height="30" rx="8.5" fill="#0B0D38"/><rect x="132.7" y="128.0" width="30" height="30" rx="8.5" fill="#0B0D38"/><circle cx="37.7" cy="95.0" r="14" fill="#0B0D38"/><circle cx="133.7" cy="95.0" r="14" fill="#0B0D38"/><circle cx="37.7" cy="191.0" r="14" fill="#0B0D38"/><circle cx="133.7" cy="191.0" r="14" fill="#0B0D38"/><circle cx="85.7" cy="143.0" r="20" fill="#0B0D38"/></svg>